<svg xmlns="http://www.w3.org/2000/svg" width="40" height="40" fill="#FF8E6E">
<path d="M33.3334 22.9166C33.3334 22.5851 33.2017 22.2671 32.9673 22.0327C32.7329 21.7983 32.4149 21.6666 32.0834 21.6666H27.0834C26.7519 21.6666 26.434 21.7983 26.1995 22.0327C25.9651 22.2671 25.8334 22.5851 25.8334 22.9166V34.1666H23.3334V7.08325C23.3334 5.86992 23.3301 5.08325 23.2534 4.50659C23.1801 3.96492 23.0617 3.79492 22.9667 3.69992C22.8717 3.60492 22.7017 3.48659 22.1601 3.41325C21.5817 3.33659 20.7967 3.33325 19.5834 3.33325C18.3701 3.33325 17.5834 3.33659 17.0067 3.41325C16.4651 3.48659 16.2951 3.60492 16.2001 3.69992C16.1051 3.79492 15.9867 3.96492 15.9134 4.50659C15.8367 5.08492 15.8334 5.86992 15.8334 7.08325V34.1666H13.3334V14.5833C13.3334 14.2517 13.2017 13.9338 12.9673 13.6994C12.7329 13.4649 12.4149 13.3333 12.0834 13.3333H7.08341C6.75189 13.3333 6.43395 13.4649 6.19953 13.6994C5.96511 13.9338 5.83341 14.2517 5.83341 14.5833V34.1666H2.91675C2.58523 34.1666 2.26729 34.2983 2.03286 34.5327C1.79844 34.7671 1.66675 35.0851 1.66675 35.4166C1.66675 35.7481 1.79844 36.066 2.03286 36.3005C2.26729 36.5349 2.58523 36.6666 2.91675 36.6666H36.2501C36.5816 36.6666 36.8995 36.5349 37.134 36.3005C37.3684 36.066 37.5001 35.7481 37.5001 35.4166C37.5001 35.0851 37.3684 34.7671 37.134 34.5327C36.8995 34.2983 36.5816 34.1666 36.2501 34.1666H33.3334V22.9166Z" />
</svg>
