<svg xmlns="http://www.w3.org/2000/svg" width="40" height="40" fill="#FF8E6E">
<path d="M25.8333 20C30 20 33.3333 23.3333 33.3333 27.5C33.3333 28.9667 32.9167 30.35 32.1833 31.5L37.3167 36.6667L35 38.9833L29.8 33.8667C28.65 34.5833 27.2833 35 25.8333 35C21.6667 35 18.3333 31.6667 18.3333 27.5C18.3333 23.3333 21.6667 20 25.8333 20ZM25.8333 23.3333C24.7283 23.3333 23.6685 23.7723 22.8871 24.5537C22.1057 25.3351 21.6667 26.3949 21.6667 27.5C21.6667 28.6051 22.1057 29.6649 22.8871 30.4463C23.6685 31.2277 24.7283 31.6667 25.8333 31.6667C26.9384 31.6667 27.9982 31.2277 28.7796 30.4463C29.561 29.6649 30 28.6051 30 27.5C30 26.3949 29.561 25.3351 28.7796 24.5537C27.9982 23.7723 26.9384 23.3333 25.8333 23.3333ZM11.6667 25V28.3333H15C15.2333 30.9167 16.3333 33.2333 18.0167 35H8.33333C7.44928 35 6.60143 34.6488 5.97631 34.0237C5.35119 33.3986 5 32.5507 5 31.6667V8.33333C5 6.48333 6.48333 5 8.33333 5H31.6667C32.5507 5 33.3986 5.35119 34.0237 5.97631C34.6488 6.60143 35 7.44928 35 8.33333V21.7167C34.0242 20.1681 32.6713 18.8925 31.0681 18.0092C29.4649 17.126 27.6637 16.6641 25.8333 16.6667C23.7167 16.6667 21.7333 17.2833 20.0667 18.3333H11.6667V21.6667H16.6667C16.0667 22.6667 15.5667 23.8 15.2833 25H11.6667ZM28.3333 15V11.6667H11.6667V15H28.3333Z" />
</svg>
