<svg xmlns="http://www.w3.org/2000/svg" width="40" height="40" fill="#FF8E6E">
<path d="M23.7501 18.75C23.7497 19.7449 23.3542 20.6989 22.6505 21.4022C21.9467 22.1054 20.9925 22.5003 19.9976 22.5C19.0027 22.4997 18.0487 22.1041 17.3454 21.4004C16.6421 20.6967 16.2472 19.7424 16.2476 18.7475C16.2479 17.7526 16.6434 16.7986 17.3472 16.0953C18.0509 15.3921 19.0052 14.9972 20.0001 14.9975C20.995 14.9978 21.949 15.3934 22.6522 16.0971C23.3555 16.8008 23.7504 17.7551 23.7501 18.75ZM35.6751 10H29.3251C28.178 10 27.0779 10.4557 26.2668 11.2668C25.4557 12.0779 25.0001 13.1779 25.0001 14.325V22.5C25.0001 23.163 25.2635 23.7989 25.7323 24.2678C26.2011 24.7366 26.837 25 27.5001 25V40H37.5001V25C38.1631 25 38.799 24.7366 39.2678 24.2678C39.7367 23.7989 40.0001 23.163 40.0001 22.5V14.325C40.0001 13.1779 39.5444 12.0779 38.7333 11.2668C37.9222 10.4557 36.8221 10 35.6751 10Z" />
<path d="M37.5 5C37.5151 5.66585 37.3969 6.32799 37.1526 6.94756C36.9082 7.56713 36.5425 8.13163 36.077 8.60793C35.6115 9.08423 35.0555 9.46272 34.4416 9.72118C33.8278 9.97964 33.1685 10.1129 32.5025 10.113C31.8365 10.1132 31.1772 9.98031 30.5632 9.72215C29.9493 9.464 29.3931 9.08578 28.9273 8.60972C28.4615 8.13365 28.0956 7.56933 27.8509 6.94989C27.6062 6.33044 27.4878 5.66835 27.5025 5.0025C27.5314 3.69609 28.0706 2.45291 29.0046 1.53907C29.9386 0.625234 31.1933 0.113364 32.5 0.113037C33.8068 0.112711 35.0617 0.623953 35.9962 1.53732C36.9307 2.4507 37.4705 3.69361 37.5 5ZM10.675 12.5H4.325C3.75687 12.5002 3.19433 12.6122 2.66951 12.8298C2.14469 13.0474 1.66786 13.3662 1.26625 13.768C0.864632 14.1699 0.546101 14.6469 0.328838 15.1718C0.111575 15.6968 -0.000163972 16.2594 1.806e-07 16.8275C0.000164333 17.3956 0.112229 17.9582 0.329795 18.483C0.547361 19.0078 0.866168 19.4846 1.26801 19.8863C1.66986 20.2879 2.14687 20.6064 2.67182 20.8237C3.19677 21.0409 3.75937 21.1527 4.3275 21.1525C5.47489 21.1522 6.57516 20.6961 7.38625 19.8845C8.19735 19.0729 8.65283 17.9724 8.6525 16.825C8.65217 15.6776 8.19605 14.5773 7.38449 13.7662C6.57292 12.9552 5.47239 12.4997 4.325 12.5C3.17794 12.5 2.07734 12.9569 1.26625 13.768C0.455151 14.5791 1.806e-07 15.6804 1.806e-07 16.8275L2.71769e-07 22.5C2.71769e-07 23.163 0.263392 23.7989 0.732233 24.2678C1.20107 24.7366 1.83696 25 2.5 25L2.71769e-07 32.5H2.5V40H12.5V32.5H15L12.5 25C13.163 25 13.7989 24.7366 14.2678 24.2678C14.7366 23.7989 15 23.163 15 22.5V16.825C15 16.257 14.8881 15.6946 14.6708 15.1699C14.4534 14.6452 14.1349 14.1684 13.7332 13.7668C13.3316 13.3651 12.8548 13.0466 12.3301 12.8292C11.8054 12.6119 11.243 12.5 10.675 12.5Z" />
<path d="M12.4999 7.5C12.515 8.16585 12.3969 8.82799 12.1525 9.44756C11.9081 10.0671 11.5425 10.6316 11.0769 11.1079C10.6114 11.5842 10.0554 11.9627 9.44158 12.2212C8.82776 12.4796 8.16849 12.6129 7.50247 12.613C6.83645 12.6132 6.17711 12.4803 5.56316 12.2222C4.94921 11.964 4.39303 11.5858 3.92726 11.1097C3.46149 10.6337 3.09552 10.0693 2.85085 9.44989C2.60617 8.83044 2.48772 8.16835 2.50244 7.5025C2.53133 6.19609 3.0705 4.95291 4.00454 4.03907C4.93858 3.12523 6.19325 2.61336 7.49997 2.61304C8.80669 2.61271 10.0616 3.12395 10.9961 4.03732C11.9306 4.9507 12.4704 6.19361 12.4999 7.5ZM17.4999 32.5V40H22.4999V32.5C23.163 32.5 23.7989 32.2366 24.2677 31.7678C24.7365 31.2989 24.9999 30.663 24.9999 30V26.15C24.9999 25.182 24.6154 24.2536 23.9309 23.5691C23.2464 22.8846 22.318 22.5 21.3499 22.5H18.6499C17.6819 22.5 16.7535 22.8846 16.069 23.5691C15.3845 24.2536 14.9999 25.182 14.9999 26.15V30C14.9999 30.663 15.2633 31.2989 15.7322 31.7678C16.201 32.2366 16.8369 32.5 17.4999 32.5Z" />
</svg>
