<svg xmlns="http://www.w3.org/2000/svg" width="40" height="40" fill="#FF8E6E">
<path d="M24.9999 35C25.7614 34.9948 26.4978 34.7272 27.0849 34.2424C27.6721 33.7575 28.0741 33.0851 28.2233 32.3383L29.0233 28.3333H33.7499C34.5235 28.3333 35.2653 28.026 35.8123 27.4791C36.3593 26.9321 36.6666 26.1902 36.6666 25.4167V15.435C36.667 14.4386 36.2727 13.4826 35.5698 12.7764C34.867 12.0701 33.913 11.6711 32.9166 11.6667V11.66H24.1666V8.75C24.1666 7.75544 23.7715 6.80161 23.0682 6.09835C22.365 5.39509 21.4111 5 20.4166 5H7.08325C6.08869 5 5.13486 5.39509 4.4316 6.09835C3.72834 6.80161 3.33325 7.75544 3.33325 8.75V29.5833C3.33325 31.0199 3.90393 32.3977 4.91976 33.4135C5.93558 34.4293 7.31333 35 8.74992 35H24.9999ZM29.2033 14.6967L25.7716 31.8483C25.733 32.0462 25.622 32.2226 25.4602 32.343C25.2985 32.4633 25.0977 32.5191 24.8971 32.4993C24.6964 32.4795 24.5104 32.3856 24.3753 32.2359C24.2402 32.0863 24.1658 31.8916 24.1666 31.69V14.16H29.3499C29.2862 14.3345 29.2371 14.514 29.2033 14.6967ZM9.62992 14.1667C9.2984 14.1667 8.98045 14.035 8.74603 13.8005C8.51161 13.5661 8.37992 13.2482 8.37992 12.9167C8.37992 12.5851 8.51161 12.2672 8.74603 12.0328C8.98045 11.7984 9.2984 11.6667 9.62992 11.6667C9.96144 11.6667 10.2794 11.7984 10.5138 12.0328C10.7482 12.2672 10.8799 12.5851 10.8799 12.9167C10.8799 13.2482 10.7482 13.5661 10.5138 13.8005C10.2794 14.035 9.96144 14.1667 9.62992 14.1667ZM8.38492 26.25C8.38492 25.9185 8.51661 25.6005 8.75104 25.3661C8.98546 25.1317 9.3034 25 9.63492 25H17.9683C18.2998 25 18.6177 25.1317 18.8521 25.3661C19.0866 25.6005 19.2183 25.9185 19.2183 26.25C19.2183 26.5815 19.0866 26.8995 18.8521 27.1339C18.6177 27.3683 18.2998 27.5 17.9683 27.5H9.63492C9.3034 27.5 8.98546 27.3683 8.75104 27.1339C8.51661 26.8995 8.38492 26.5815 8.38492 26.25ZM9.63492 18.3333H17.9683C18.1324 18.3333 18.2949 18.3657 18.4466 18.4285C18.5983 18.4913 18.7361 18.5834 18.8521 18.6995C18.9682 18.8155 19.0603 18.9533 19.1231 19.105C19.1859 19.2566 19.2183 19.4192 19.2183 19.5833C19.2183 19.7475 19.1859 19.91 19.1231 20.0617C19.0603 20.2133 18.9682 20.3511 18.8521 20.4672C18.7361 20.5833 18.5983 20.6754 18.4466 20.7382C18.2949 20.801 18.1324 20.8333 17.9683 20.8333H9.63492C9.3034 20.8333 8.98546 20.7016 8.75104 20.4672C8.51661 20.2328 8.38492 19.9149 8.38492 19.5833C8.38492 19.2518 8.51661 18.9339 8.75104 18.6995C8.98546 18.465 9.3034 18.3333 9.63492 18.3333Z" />
</svg>
