<svg xmlns="http://www.w3.org/2000/svg" width="40" height="40" fill="#FF8E6E">
<path d="M28.0001 5.5C28.0001 5.10218 28.1581 4.72064 28.4394 4.43934C28.7207 4.15804 29.1022 4 29.5001 4H34.5001C34.8979 4 35.2794 4.15804 35.5607 4.43934C35.842 4.72064 36.0001 5.10218 36.0001 5.5V10.5C36.0001 10.8978 35.842 11.2794 35.5607 11.5607C35.2794 11.842 34.8979 12 34.5001 12C34.1022 12 33.7207 11.842 33.4394 11.5607C33.1581 11.2794 33.0001 10.8978 33.0001 10.5V9.12L24.0601 18.06C23.7788 18.3409 23.3976 18.4987 23.0001 18.4987C22.6026 18.4987 22.2213 18.3409 21.9401 18.06L17.0001 13.12L8.56006 21.56C8.42274 21.7074 8.25714 21.8256 8.07314 21.9076C7.88914 21.9895 7.69051 22.0336 7.48911 22.0372C7.2877 22.0407 7.08764 22.0037 6.90087 21.9282C6.71409 21.8528 6.54442 21.7405 6.40199 21.5981C6.25955 21.4556 6.14726 21.286 6.07182 21.0992C5.99638 20.9124 5.95933 20.7124 5.96288 20.511C5.96643 20.3095 6.01052 20.1109 6.0925 19.9269C6.17449 19.7429 6.29269 19.5773 6.44006 19.44L15.9401 9.94C16.2213 9.6591 16.6026 9.50132 17.0001 9.50132C17.3976 9.50132 17.7788 9.6591 18.0601 9.94L23.0001 14.88L30.8801 7H29.5001C29.1022 7 28.7207 6.84196 28.4394 6.56066C28.1581 6.27936 28.0001 5.89782 28.0001 5.5ZM7.50006 28C7.89789 28 8.27942 28.158 8.56072 28.4393C8.84203 28.7206 9.00006 29.1022 9.00006 29.5V34.5C9.00006 34.8978 8.84203 35.2794 8.56072 35.5607C8.27942 35.842 7.89789 36 7.50006 36C7.10224 36 6.72071 35.842 6.4394 35.5607C6.1581 35.2794 6.00006 34.8978 6.00006 34.5V29.5C6.00006 29.1022 6.1581 28.7206 6.4394 28.4393C6.72071 28.158 7.10224 28 7.50006 28ZM17.0001 23.5C17.0001 23.1022 16.842 22.7206 16.5607 22.4393C16.2794 22.158 15.8979 22 15.5001 22C15.1022 22 14.7207 22.158 14.4394 22.4393C14.1581 22.7206 14.0001 23.1022 14.0001 23.5V34.5C14.0001 34.8978 14.1581 35.2794 14.4394 35.5607C14.7207 35.842 15.1022 36 15.5001 36C15.8979 36 16.2794 35.842 16.5607 35.5607C16.842 35.2794 17.0001 34.8978 17.0001 34.5V23.5ZM23.5001 26C23.8979 26 24.2794 26.158 24.5607 26.4393C24.842 26.7206 25.0001 27.1022 25.0001 27.5V34.5C25.0001 34.8978 24.842 35.2794 24.5607 35.5607C24.2794 35.842 23.8979 36 23.5001 36C23.1022 36 22.7207 35.842 22.4394 35.5607C22.1581 35.2794 22.0001 34.8978 22.0001 34.5V27.5C22.0001 27.1022 22.1581 26.7206 22.4394 26.4393C22.7207 26.158 23.1022 26 23.5001 26ZM33.0001 19.5C33.0001 19.1022 32.842 18.7206 32.5607 18.4393C32.2794 18.158 31.8979 18 31.5001 18C31.1022 18 30.7207 18.158 30.4394 18.4393C30.1581 18.7206 30.0001 19.1022 30.0001 19.5V34.5C30.0001 34.8978 30.1581 35.2794 30.4394 35.5607C30.7207 35.842 31.1022 36 31.5001 36C31.8979 36 32.2794 35.842 32.5607 35.5607C32.842 35.2794 33.0001 34.8978 33.0001 34.5V19.5Z" />
</svg>
