<svg xmlns="http://www.w3.org/2000/svg" width="40" height="40" fill="#FF8E6E">
<path d="M28.75 5L26.9442 11.4083L23.3333 13.2942L26.9442 15.1792L28.75 20.8333L30.5558 15.1783L34.1667 13.2933L30.5558 11.4092L28.75 5ZM16.6667 10L15.8333 13.3333L13.3333 14.1667L15.8333 15L16.6667 18.3333L17.5 15L20 14.1667L17.5 13.3333L16.6667 10ZM5 25C5 24.779 5.0878 24.567 5.24408 24.4107C5.40036 24.2545 5.61232 24.1667 5.83333 24.1667H8.33333C8.55435 24.1667 8.76631 24.2545 8.92259 24.4107C9.07887 24.567 9.16667 24.779 9.16667 25V34.1633C9.16667 34.3843 9.07887 34.5963 8.92259 34.7526C8.76631 34.9089 8.55435 34.9967 8.33333 34.9967H5.83333C5.61232 34.9967 5.40036 34.9089 5.24408 34.7526C5.0878 34.5963 5 34.3843 5 34.1633V25ZM14.7542 24.3242C15.5308 23.97 17.4292 24.3242 17.4292 24.3242L22.9508 25.5625C22.9508 25.5625 24.3317 26.005 25.6258 26.005C26.92 26.005 26.1458 27.7767 25.28 28.395C24.4142 29.0133 23.785 28.98 23.785 28.98L19.3267 28.9258C19.3267 28.9258 23.21 29.6342 24.6767 29.7225C25.4192 29.7675 26.6933 29.2442 28.1183 28.66C29.5058 28.09 31.035 27.4625 32.355 27.2442C35.03 26.8025 35.4617 29.1917 34.5983 30.0767C33.7358 30.9617 26.8333 34.3242 25.6258 34.7667C24.6792 35.1133 23.535 34.9983 22.2442 34.8683C21.8867 34.8325 21.5175 34.795 21.1392 34.7667C19.6308 34.6525 18.4792 34.2858 17.3392 33.9233C16.1158 33.535 14.9067 33.1508 13.2875 33.085C12.7442 33.0633 11.4725 33.1308 10.8333 33.1683V25.7833C11.9383 25.39 14.1758 24.5875 14.7542 24.3242Z" />
<path d="M28.75 5L26.9442 11.4083L23.3333 13.2942L26.9442 15.1792L28.75 20.8333L30.5558 15.1783L34.1667 13.2933L30.5558 11.4092L28.75 5ZM16.6667 10L15.8333 13.3333L13.3333 14.1667L15.8333 15L16.6667 18.3333L17.5 15L20 14.1667L17.5 13.3333L16.6667 10ZM5 25C5 24.779 5.0878 24.567 5.24408 24.4107C5.40036 24.2545 5.61232 24.1667 5.83333 24.1667H8.33333C8.55435 24.1667 8.76631 24.2545 8.92259 24.4107C9.07887 24.567 9.16667 24.779 9.16667 25V34.1633C9.16667 34.3843 9.07887 34.5963 8.92259 34.7526C8.76631 34.9089 8.55435 34.9967 8.33333 34.9967H5.83333C5.61232 34.9967 5.40036 34.9089 5.24408 34.7526C5.0878 34.5963 5 34.3843 5 34.1633V25ZM14.7542 24.3242C15.5308 23.97 17.4292 24.3242 17.4292 24.3242L22.9508 25.5625C22.9508 25.5625 24.3317 26.005 25.6258 26.005C26.92 26.005 26.1458 27.7767 25.28 28.395C24.4142 29.0133 23.785 28.98 23.785 28.98L19.3267 28.9258C19.3267 28.9258 23.21 29.6342 24.6767 29.7225C25.4192 29.7675 26.6933 29.2442 28.1183 28.66C29.5058 28.09 31.035 27.4625 32.355 27.2442C35.03 26.8025 35.4617 29.1917 34.5983 30.0767C33.7358 30.9617 26.8333 34.3242 25.6258 34.7667C24.6792 35.1133 23.535 34.9983 22.2442 34.8683C21.8867 34.8325 21.5175 34.795 21.1392 34.7667C19.6308 34.6525 18.4792 34.2858 17.3392 33.9233C16.1158 33.535 14.9067 33.1508 13.2875 33.085C12.7442 33.0633 11.4725 33.1308 10.8333 33.1683V25.7833C11.9383 25.39 14.1758 24.5875 14.7542 24.3242Z" />
</svg>
