<svg xmlns="http://www.w3.org/2000/svg" width="40" height="40" fill="#ce5c3c">
<path d="M22.2846 4.00488C24.1945 4.00998 25.1638 4.02016 26.0008 4.04393L26.3302 4.05581C26.7104 4.06939 27.0856 4.08637 27.5389 4.10674C29.3452 4.19163 30.5778 4.47684 31.6592 4.89617C32.7797 5.32738 33.7236 5.91138 34.6675 6.8536C35.5311 7.70199 36.1991 8.72865 36.6249 9.8619C37.0442 10.9433 37.3295 12.1758 37.4143 13.9839C37.4347 14.4355 37.4517 14.8107 37.4653 15.1926L37.4755 15.522C37.5009 16.3572 37.5111 17.3266 37.5145 19.2365L37.5162 20.503V22.727C37.5203 23.9653 37.5073 25.2036 37.4772 26.4415L37.467 26.7708C37.4534 27.1528 37.4364 27.528 37.416 27.9796C37.3312 29.7876 37.0425 31.0185 36.6249 32.1016C36.1991 33.2348 35.5311 34.2615 34.6675 35.1099C33.8191 35.9735 32.7924 36.6415 31.6592 37.0673C30.5778 37.4866 29.3452 37.7718 27.5389 37.8567L26.3302 37.9077L26.0008 37.9178C25.1638 37.9416 24.1945 37.9535 22.2846 37.9569L21.0181 37.9586H18.7958C17.557 37.963 16.3181 37.9499 15.0796 37.9195L14.7502 37.9094C14.3472 37.8941 13.9443 37.8766 13.5415 37.8567C11.7351 37.7718 10.5026 37.4866 9.4195 37.0673C8.28686 36.6413 7.2608 35.9733 6.4129 35.1099C5.54869 34.2617 4.88008 33.235 4.45377 32.1016C4.03445 31.0202 3.74923 29.7876 3.66435 27.9796L3.61342 26.7708L3.60493 26.4415C3.57364 25.2036 3.55949 23.9653 3.56249 22.727V19.2365C3.55779 17.9982 3.57024 16.7599 3.59984 15.522L3.61172 15.1926C3.6253 14.8107 3.64228 14.4355 3.66265 13.9839C3.74754 12.1758 4.03275 10.945 4.45208 9.8619C4.87937 8.72818 5.54916 7.70148 6.4146 6.8536C7.26201 5.99041 8.28747 5.32241 9.4195 4.89617C10.5026 4.47684 11.7334 4.19163 13.5415 4.10674C13.9931 4.08637 14.37 4.06939 14.7502 4.05581L15.0796 4.04563C16.3175 4.01546 17.5558 4.00245 18.7941 4.00658L22.2846 4.00488ZM20.5393 12.4933C18.2881 12.4933 16.129 13.3876 14.5371 14.9795C12.9452 16.5714 12.0509 18.7305 12.0509 20.9817C12.0509 23.233 12.9452 25.3921 14.5371 26.984C16.129 28.5759 18.2881 29.4702 20.5393 29.4702C22.7906 29.4702 24.9497 28.5759 26.5416 26.984C28.1335 25.3921 29.0278 23.233 29.0278 20.9817C29.0278 18.7305 28.1335 16.5714 26.5416 14.9795C24.9497 13.3876 22.7906 12.4933 20.5393 12.4933ZM20.5393 15.8887C21.2082 15.8886 21.8705 16.0202 22.4884 16.276C23.1064 16.5319 23.6679 16.9069 24.1409 17.3798C24.6139 17.8527 24.9892 18.4141 25.2452 19.0319C25.5013 19.6498 25.6331 20.3121 25.6332 20.9809C25.6334 21.6497 25.5017 22.312 25.2459 22.93C24.99 23.5479 24.615 24.1095 24.1421 24.5825C23.6693 25.0555 23.1079 25.4307 22.49 25.6868C21.8721 25.9428 21.2099 26.0747 20.541 26.0748C19.1903 26.0748 17.8948 25.5382 16.9397 24.5831C15.9846 23.6279 15.448 22.3325 15.448 20.9817C15.448 19.631 15.9846 18.3355 16.9397 17.3804C17.8948 16.4253 19.1903 15.8887 20.541 15.8887M29.4539 9.94678C28.8911 9.94678 28.3513 10.1704 27.9533 10.5683C27.5554 10.9663 27.3318 11.5061 27.3318 12.0689C27.3318 12.6317 27.5554 13.1715 27.9533 13.5694C28.3513 13.9674 28.8911 14.191 29.4539 14.191C30.0167 14.191 30.5565 13.9674 30.9544 13.5694C31.3524 13.1715 31.576 12.6317 31.576 12.0689C31.576 11.5061 31.3524 10.9663 30.9544 10.5683C30.5565 10.1704 30.0167 9.94678 29.4539 9.94678Z" />
</svg>
