<svg xmlns="http://www.w3.org/2000/svg" width="40" height="40" fill="#ce5c3c">
<mask id="mask0_300_275" style="mask-type:luminance" maskUnits="userSpaceOnUse" x="1" y="2" width="39" height="37">
<path d="M8.58043 28.3115C5.50762 29.2334 3.60791 30.5066 3.60791 31.9132C3.60791 34.7262 11.2084 37.0062 20.5848 37.0062C29.9611 37.0062 37.5616 34.7262 37.5616 31.9132C37.5616 30.5066 35.6611 29.2334 32.5891 28.3115" stroke="white" stroke-width="4" stroke-linecap="round" stroke-linejoin="round"/>
<path d="M20.5848 30.2155C20.5848 30.2155 31.6197 23.0037 31.6197 14.6664C31.6197 8.7211 26.6795 3.90137 20.5848 3.90137C14.4901 3.90137 9.5498 8.7211 9.5498 14.6664C9.5498 23.0037 20.5848 30.2155 20.5848 30.2155Z" fill="white" stroke="white" stroke-width="4" stroke-linejoin="round"/>
<path d="M20.5845 19.1803C21.7102 19.1803 22.7897 18.7332 23.5857 17.9372C24.3816 17.1413 24.8288 16.0617 24.8288 14.9361C24.8288 13.8105 24.3816 12.7309 23.5857 11.935C22.7897 11.1391 21.7102 10.6919 20.5845 10.6919C19.4589 10.6919 18.3794 11.1391 17.5834 11.935C16.7875 12.7309 16.3403 13.8105 16.3403 14.9361C16.3403 16.0617 16.7875 17.1413 17.5834 17.9372C18.3794 18.7332 19.4589 19.1803 20.5845 19.1803Z" fill="black" stroke="black" stroke-width="4" stroke-linejoin="round"/>
</mask>
<g mask="url(#mask0_300_275)">
<path d="M0.212402 0.505859H40.9569V41.2503H0.212402V0.505859Z"/>
</g>
</svg>
