<svg xmlns="http://www.w3.org/2000/svg" width="40" height="40" fill="#ce5c3c">
<path d="M34.8171 7.19287H7.65416C5.78671 7.19287 4.27577 8.72079 4.27577 10.5882L4.25879 30.9605C4.25879 32.8279 5.78671 34.3558 7.65416 34.3558H34.8171C36.6846 34.3558 38.2125 32.8279 38.2125 30.9605V10.5882C38.2125 8.72079 36.6846 7.19287 34.8171 7.19287ZM34.1381 14.408L22.1354 21.9118C21.5922 22.2513 20.8791 22.2513 20.3359 21.9118L8.33323 14.408C8.163 14.3125 8.01393 14.1834 7.89504 14.0285C7.77615 13.8737 7.68992 13.6963 7.64156 13.5072C7.59319 13.3181 7.58371 13.1211 7.61368 12.9282C7.64365 12.7353 7.71245 12.5504 7.81592 12.3849C7.91938 12.2194 8.05536 12.0765 8.21563 11.9651C8.37589 11.8536 8.55711 11.7758 8.74831 11.7364C8.93951 11.697 9.13672 11.6968 9.328 11.7358C9.51928 11.7748 9.70066 11.8522 9.86115 11.9634L21.2356 19.0767L32.6101 11.9634C32.7706 11.8522 32.952 11.7748 33.1433 11.7358C33.3346 11.6968 33.5318 11.697 33.723 11.7364C33.9142 11.7758 34.0954 11.8536 34.2557 11.9651C34.4159 12.0765 34.5519 12.2194 34.6554 12.3849C34.7588 12.5504 34.8276 12.7353 34.8576 12.9282C34.8876 13.1211 34.8781 13.3181 34.8297 13.5072C34.7814 13.6963 34.6951 13.8737 34.5762 14.0285C34.4574 14.1834 34.3083 14.3125 34.1381 14.408Z" />
</svg>
