<svg xmlns="http://www.w3.org/2000/svg" width="40" height="40" fill="#FF8E6E">
<path fill-rule="evenodd" clip-rule="evenodd" d="M32.5 10.8333C31.837 10.8333 31.2011 11.0967 30.7322 11.5656C30.2634 12.0344 30 12.6703 30 13.3333V15H35V13.3333C35 12.6703 34.7366 12.0344 34.2678 11.5656C33.7989 11.0967 33.163 10.8333 32.5 10.8333ZM35 16.6667H30V30.4167L32.5 34.1667L35 30.4167V16.6667ZM5 7.5V32.5C5 33.163 5.26339 33.7989 5.73223 34.2678C6.20107 34.7366 6.83696 35 7.5 35H25.8333C26.4964 35 27.1323 34.7366 27.6011 34.2678C28.0699 33.7989 28.3333 33.163 28.3333 32.5V7.5C28.3333 6.83696 28.0699 6.20107 27.6011 5.73223C27.1323 5.26339 26.4964 5 25.8333 5H7.5C6.83696 5 6.20107 5.26339 5.73223 5.73223C5.26339 6.20107 5 6.83696 5 7.5ZM16.6667 12.5C16.6667 12.279 16.7545 12.067 16.9107 11.9107C17.067 11.7545 17.279 11.6667 17.5 11.6667H24.1667C24.3877 11.6667 24.5996 11.7545 24.7559 11.9107C24.9122 12.067 25 12.279 25 12.5C25 12.721 24.9122 12.933 24.7559 13.0893C24.5996 13.2455 24.3877 13.3333 24.1667 13.3333H17.5C17.279 13.3333 17.067 13.2455 16.9107 13.0893C16.7545 12.933 16.6667 12.721 16.6667 12.5ZM17.5 15C17.279 15 17.067 15.0878 16.9107 15.2441C16.7545 15.4004 16.6667 15.6123 16.6667 15.8333C16.6667 16.0543 16.7545 16.2663 16.9107 16.4226C17.067 16.5789 17.279 16.6667 17.5 16.6667H24.1667C24.3877 16.6667 24.5996 16.5789 24.7559 16.4226C24.9122 16.2663 25 16.0543 25 15.8333C25 15.6123 24.9122 15.4004 24.7559 15.2441C24.5996 15.0878 24.3877 15 24.1667 15H17.5ZM16.6667 23.3333C16.6667 23.1123 16.7545 22.9004 16.9107 22.7441C17.067 22.5878 17.279 22.5 17.5 22.5H24.1667C24.3877 22.5 24.5996 22.5878 24.7559 22.7441C24.9122 22.9004 25 23.1123 25 23.3333C25 23.5543 24.9122 23.7663 24.7559 23.9226C24.5996 24.0789 24.3877 24.1667 24.1667 24.1667H17.5C17.279 24.1667 17.067 24.0789 16.9107 23.9226C16.7545 23.7663 16.6667 23.5543 16.6667 23.3333ZM17.5 25.8333C17.279 25.8333 17.067 25.9211 16.9107 26.0774C16.7545 26.2337 16.6667 26.4457 16.6667 26.6667C16.6667 26.8877 16.7545 27.0996 16.9107 27.2559C17.067 27.4122 17.279 27.5 17.5 27.5H24.1667C24.3877 27.5 24.5996 27.4122 24.7559 27.2559C24.9122 27.0996 25 26.8877 25 26.6667C25 26.4457 24.9122 26.2337 24.7559 26.0774C24.5996 25.9211 24.3877 25.8333 24.1667 25.8333H17.5ZM10 23.3333V25.8333H12.5V23.3333H10ZM9.16667 21.6667H13.3333C13.5543 21.6667 13.7663 21.7545 13.9226 21.9107C14.0789 22.067 14.1667 22.279 14.1667 22.5V26.6667C14.1667 26.8877 14.0789 27.0996 13.9226 27.2559C13.7663 27.4122 13.5543 27.5 13.3333 27.5H9.16667C8.94565 27.5 8.73369 27.4122 8.57741 27.2559C8.42113 27.0996 8.33333 26.8877 8.33333 26.6667V22.5C8.33333 22.279 8.42113 22.067 8.57741 21.9107C8.73369 21.7545 8.94565 21.6667 9.16667 21.6667ZM14.7558 13.0892C14.9076 12.932 14.9916 12.7215 14.9897 12.503C14.9878 12.2845 14.9002 12.0755 14.7457 11.921C14.5912 11.7665 14.3822 11.6788 14.1637 11.6769C13.9452 11.675 13.7347 11.759 13.5775 11.9108L10.8333 14.655L9.75583 13.5775C9.59866 13.4257 9.38816 13.3417 9.16967 13.3436C8.95117 13.3455 8.74216 13.4331 8.58765 13.5877C8.43314 13.7422 8.3455 13.9512 8.34361 14.1697C8.34171 14.3882 8.4257 14.5987 8.5775 14.7558L10.8333 17.0117L14.7558 13.0892Z" />
</svg>
