<svg xmlns="http://www.w3.org/2000/svg" width="40" height="40" fill="#FF8E6E">
<path d="M31.978 38.2579C31.978 33.7659 27.604 31.4799 23.344 29.6439C19.098 27.8159 17.742 26.2759 17.742 22.9759C17.742 20.9979 19.038 21.6419 19.606 18.0139C19.846 16.5099 20.99 17.9899 21.21 14.5559C21.21 13.1879 20.584 12.8479 20.584 12.8479C20.584 12.8479 20.902 10.8219 21.026 9.26188C21.154 7.62788 20.23 4.14188 16.424 3.07188C15.76 2.38988 15.31 1.30788 17.358 0.223876C12.878 0.0158755 11.836 2.35988 9.45 4.08388C7.42 5.59588 6.872 7.98987 6.97 9.26388C7.1 10.8239 7.416 12.8499 7.416 12.8499C7.416 12.8499 6.788 13.1899 6.788 14.5579C7.008 17.9939 8.156 16.5119 8.394 18.0159C8.962 21.6439 10.26 20.9999 10.26 22.9779C10.26 26.2779 9.836 27.3979 5.588 29.2259C1.326 31.0599 0 33.9999 0.022 38.2579C0.028 39.5319 0 39.9999 0 39.9999H32C32 39.9999 31.978 39.5319 31.978 38.2579ZM37.056 26.7299C34.786 25.8159 33.846 24.7259 33.846 22.5979C33.846 21.3159 34.682 21.7339 35.05 19.3919C35.204 18.4239 35.944 19.3759 36.086 17.1619C36.086 16.2799 35.682 16.0599 35.682 16.0599C35.682 16.0599 35.888 14.7479 35.968 13.7419C36.068 12.4879 35.24 9.24788 31.432 9.24788C27.624 9.24788 26.796 12.4879 26.894 13.7419C26.978 14.7459 27.182 16.0599 27.182 16.0599C27.182 16.0599 26.778 16.2779 26.778 17.1619C26.92 19.3759 27.66 18.4239 27.814 19.3919C28.182 21.7359 29.018 21.3179 29.018 22.5979C29.018 24.7259 28.142 25.7219 25.4 26.9019C25.262 26.9599 25.16 27.0379 25.034 27.1059C28.314 28.5299 33.486 30.9879 34.71 35.9999H40V31.3639C40 29.3639 39.454 27.6959 37.056 26.7299Z" />
</svg>
