<svg xmlns="http://www.w3.org/2000/svg" width="40" height="40" fill="#ce5c3c">
<path d="M20.9359 3.69336C30.3122 3.69336 37.9127 11.2939 37.9127 20.6702C37.9127 30.0465 30.3122 37.6471 20.9359 37.6471C17.9356 37.6522 14.9882 36.8582 12.3965 35.3467L3.9658 37.6471L6.26107 29.213C4.74836 26.6205 3.95375 23.6718 3.95901 20.6702C3.95901 11.2939 11.5596 3.69336 20.9359 3.69336ZM15.1502 12.6911L14.8106 12.7047C14.5911 12.7198 14.3766 12.7775 14.1791 12.8744C13.995 12.9789 13.8269 13.1092 13.68 13.2615C13.4762 13.4534 13.3608 13.6197 13.2369 13.781C12.6089 14.5974 12.2708 15.5998 12.276 16.6297C12.2794 17.4616 12.4967 18.2714 12.8362 19.0286C13.5306 20.5599 14.6731 22.1812 16.1806 23.6836C16.544 24.0452 16.9005 24.4085 17.2841 24.7464C19.1574 26.3955 21.3896 27.5848 23.8033 28.2198L24.7675 28.3675C25.0816 28.3845 25.3957 28.3607 25.7115 28.3454C26.2058 28.3194 26.6885 28.1855 27.1256 27.9533C27.3478 27.8384 27.5647 27.7138 27.7758 27.5798C27.7758 27.5798 27.8477 27.5311 27.9881 27.427C28.2172 27.2572 28.3581 27.1367 28.5483 26.9381C28.6909 26.7909 28.8097 26.62 28.9048 26.4254C29.0372 26.1486 29.1696 25.6207 29.224 25.181C29.2647 24.8448 29.2528 24.6615 29.2477 24.5477C29.2409 24.3661 29.0899 24.1776 28.9252 24.0978L27.9371 23.6547C27.9371 23.6547 26.4601 23.0113 25.557 22.6005C25.4624 22.5593 25.3612 22.5357 25.2582 22.5309C25.142 22.5187 25.0246 22.5317 24.9139 22.5689C24.8031 22.6061 24.7017 22.6667 24.6164 22.7465C24.608 22.7431 24.4942 22.8399 23.2668 24.327C23.1963 24.4217 23.0993 24.4932 22.988 24.5325C22.8768 24.5718 22.7563 24.5771 22.642 24.5477C22.5314 24.5182 22.423 24.4808 22.3178 24.4357C22.1073 24.3474 22.0343 24.3134 21.89 24.2523C20.9153 23.8278 20.0131 23.2532 19.2161 22.5496C19.0022 22.3628 18.8036 22.1591 18.5999 21.9622C17.932 21.3225 17.3499 20.5989 16.8682 19.8095L16.768 19.6482C16.6972 19.5392 16.6391 19.4224 16.5949 19.3002C16.5304 19.0506 16.6984 18.8503 16.6984 18.8503C16.6984 18.8503 17.111 18.3987 17.3028 18.1542C17.4896 17.9166 17.6474 17.6857 17.7493 17.521C17.9496 17.1984 18.0125 16.8674 17.9072 16.611C17.4318 15.4498 16.9406 14.2948 16.4336 13.1461C16.3334 12.9186 16.0363 12.7556 15.7664 12.7233C15.6747 12.712 15.5831 12.703 15.4914 12.6962C15.2634 12.6831 15.0349 12.6854 14.8072 12.703L15.1502 12.6911Z" />
</svg>
